<svg version="1.1" id="Layer_1" xmlns="http://www.w3.org/2000/svg" xmlns:xlink="http://www.w3.org/1999/xlink" x="0px" y="0px"
	 width="100%" viewBox="0 0 496 496" enable-background="new 0 0 496 496" xml:space="preserve">
<path fill="#000000" opacity="1.000000" stroke="none" 
	d="
M308.980774,173.043945 
	C318.194794,175.397766 318.321045,175.569107 318.321106,185.069046 
	C318.321533,229.235504 318.330658,273.401978 318.323395,317.568420 
	C318.322144,325.187775 317.401123,326.150146 309.731140,326.394043 
	C302.906799,326.611023 296.079437,326.759125 289.252289,326.854858 
	C283.296997,326.938354 278.823486,324.496552 275.490570,319.379791 
	C261.853882,298.444122 248.056946,277.612793 234.292114,256.760803 
	C233.149475,255.029846 231.805649,253.431702 229.911926,250.917740 
	C228.931076,273.919708 229.596970,295.702637 229.370987,317.475494 
	C229.293106,324.979706 228.029617,326.022675 220.766571,326.471832 
	C210.926559,327.080322 201.117905,326.471985 191.296631,326.353699 
	C185.314194,326.281616 183.670227,324.585571 183.667831,318.514862 
	C183.650024,273.181763 183.714798,227.848465 183.572495,182.515793 
	C183.556854,177.536743 184.917313,174.359344 190.140137,173.865204 
	C192.947678,173.599564 193.396027,171.983398 193.813141,169.551666 
	C197.622070,147.347168 209.344009,130.617584 230.648590,122.878067 
	C265.462982,110.230713 300.858826,130.541504 307.381622,166.939377 
	C307.732666,168.898117 308.262329,170.824844 308.980774,173.043945 
M297.660828,157.847824 
	C283.839325,124.864235 243.159760,115.649307 217.260590,139.082092 
	C207.269623,148.121643 201.799728,159.517120 200.779572,172.986496 
	C203.596954,174.321930 206.136200,173.814026 208.578140,173.759933 
	C217.346237,173.565750 223.779388,176.581528 228.957367,184.347031 
	C241.888977,203.740692 255.188339,222.893524 268.007904,242.368805 
	C269.086823,244.007919 269.811615,246.182465 272.671234,247.066727 
	C272.671234,244.018539 272.671753,241.542877 272.671173,239.067200 
	C272.666595,220.236786 272.644257,201.406372 272.666504,182.575989 
	C272.674286,175.974976 274.637848,173.921738 281.226776,173.775345 
	C286.389618,173.660614 291.559326,173.702255 296.722717,173.818634 
	C299.734863,173.886520 300.932037,172.665436 300.715576,169.632477 
	C300.438995,165.756973 299.328857,162.135742 297.660828,157.847824 
z"/>
</svg>